Coordinates
version=1
nRows=7
nColumns=40
inDegrees=yes

Units are S.I. units (second, meters, Newtons, ...)
Angles are in degrees.

endheader
time	pelvis_tilt	pelvis_list	pelvis_rotation	pelvis_tx	pelvis_ty	pelvis_tz	hip_flexion_r	hip_adduction_r	hip_rotation_r	knee_angle_r	knee_angle_r_beta	ankle_angle_r	subtalar_angle_r	mtp_angle_r	hip_flexion_l	hip_adduction_l	hip_rotation_l	knee_angle_l	knee_angle_l_beta	ankle_angle_l	subtalar_angle_l	mtp_angle_l	lumbar_extension	lumbar_bending	lumbar_rotation	arm_flex_r	arm_add_r	arm_rot_r	elbow_flex_r	pro_sup_r	wrist_flex_r	wrist_dev_r	arm_flex_l	arm_add_l	arm_rot_l	elbow_flex_l	pro_sup_l	wrist_flex_l	wrist_dev_l
     51.60550000	     -3.04426231	     -2.00669960	     -6.59454654	      1.04126728	      0.92839699	      0.41505046	     26.19126522	     -5.63509311	     -7.91666461	     16.55480733	     16.55480733	      4.10043593	      8.28056919	      9.54927361	      9.64887692	     -2.40258321	    -11.29121729	     20.70883103	     20.70883103	     15.40588757	    -14.61395035	     -4.20022254	    -10.80446457	      2.49139276	     -0.10481414	    -18.75573134	    -13.49178483	    -12.82402532	     27.87709647	     46.86494380	      0.00000000	      0.00000000	     34.21719784	    -21.13905584	     -2.02349426	     81.17417188	     47.52535727	      0.00000000	      0.00000000
     51.62600000	     -2.99755547	     -1.56263501	     -6.84314631	      1.04423847	      0.92788490	      0.41779106	     25.82597235	     -5.87981900	     -8.10327295	     16.77509034	     16.77509034	      4.02357893	      8.52927917	      8.33232754	      8.73843045	     -2.02399154	    -11.80107327	     20.02397162	     20.02397162	     15.57107315	    -14.19102185	     -4.61150117	    -10.61669124	      2.13230233	     -0.03900775	    -18.84874475	    -13.71169350	    -13.20795681	     28.44539023	     46.85901767	      0.00000000	      0.00000000	     34.23372625	    -20.52889750	     -3.08803250	     82.42627648	     47.62779825	      0.00000000	      0.00000000
     51.64650000	     -3.00858677	     -1.27635372	     -7.04587250	      1.04772193	      0.92710345	      0.42082371	     25.17319253	     -5.87991474	     -8.10568830	     16.56728682	     16.56728682	      2.42745617	      8.17091314	      2.76025336	      7.94924414	     -1.83650010	    -12.09721840	     19.52406851	     19.52406851	     15.44047679	    -14.16793777	     -5.80059165	    -10.33287705	      1.99776315	     -0.71680538	    -18.44979928	    -14.05123466	    -14.30749806	     29.99057191	     46.81785581	      0.00000000	      0.00000000	     33.08426235	    -20.09780320	     -5.73552583	     84.62301236	     47.87849559	      0.00000000	      0.00000000
     51.66700000	     -3.16758072	     -1.12887895	     -7.24496670	      1.05133632	      0.92624866	      0.42419789	     24.76095833	     -5.76069338	     -8.18269782	     16.80887413	     16.80887413	      2.68281963	      8.04410409	      2.54673056	      7.44315775	     -1.83839480	    -12.23258463	     19.34111037	     19.34111037	     15.79483321	    -14.20431944	     -5.87997055	     -9.81397524	      1.96352662	     -0.53348205	    -17.95757879	    -14.28578209	    -14.33637454	     30.20500236	     46.81452626	      0.00000000	      0.00000000	     32.91725565	    -19.70832756	     -5.67022044	     84.73098087	     47.87590083	      0.00000000	      0.00000000
     51.68750000	     -2.97825763	     -0.84708173	     -7.55954331	      1.05572946	      0.92593829	      0.42778807	     24.07364435	     -5.74661285	     -7.71179035	     17.17205950	     17.17205950	      1.90421488	      7.26273570	     -1.17275206	      6.09851191	     -1.61155421	    -12.82486544	     18.35477597	     18.35477597	     15.90802382	    -13.50273807	     -6.19533679	     -9.73655497	      1.87279067	     -0.81445550	    -17.26841708	    -14.67556189	    -14.68074066	     31.97777617	     46.72633983	      0.00000000	      0.00000000	     31.32270066	    -18.66000443	     -8.34141090	     86.77031482	     48.09320837	      0.00000000	      0.00000000
     51.70800000	     -2.94344571	     -0.81109819	     -7.82639733	      1.06019004	      0.92551102	      0.43179146	     23.49019000	     -5.43899581	     -7.25847367	     17.52964198	     17.52964198	      1.82215498	      6.46734609	     -2.75881784	      5.07077200	     -1.69181739	    -13.14287996	     17.72586445	     17.72586445	     16.14590374	    -13.21276111	     -6.21216576	     -9.46117129	      2.01059905	     -0.81502750	    -16.43408416	    -15.04202237	    -14.56756624	     33.19843403	     46.64419048	      0.00000000	      0.00000000	     30.06328239	    -18.03625466	     -9.26024933	     87.47237677	     48.16609280	      0.00000000	      0.00000000
     51.72850000	     -3.05052802	     -0.93048575	     -8.05170491	      1.06462438	      0.92494441	      0.43608858	     23.12318056	     -5.02489769	     -7.10593401	     18.03793701	     18.03793701	      2.28080650	      6.33322631	     -3.08138196	      4.34932012	     -1.99811872	    -13.29071913	     17.42097085	     17.42097085	     16.38610153	    -13.23311286	     -6.16657358	     -9.05620055	      2.31429911	     -0.42658023	    -15.36081538	    -15.25708721	    -14.56594656	     33.71439883	     46.63006474	      0.00000000	      0.00000000	     29.09895437	    -17.35438711	     -9.03243311	     87.26582180	     48.14186094	      0.00000000	      0.00000000
